# xmcd CD database file
#
# Track frame offsets:
#	150
#	20205
#	41025
#	65280
#	83145
#	99135
#	121350
#	142175
#	161815
#	185010
#	204540
#	225090
#	243050
#
# Disc length: 3499 seconds
#
# Revision: 0
# Processed by: cddbd v1.5.2PL0 Copyright (c) Steve Scherf et al.
# Submitted via: CD2WAV32(JP) R3.22
#
DISCID=aa0da90d
DTITLE=関ジャニ∞ - ズッコケ大脱走
DYEAR=2007
DGENRE=JPop
TTITLE0=01 関ジャニ∞ - Big Sky Blues
TTITLE1=02 関ジャニ∞ - Speedy Wonder
TTITLE2=03 関ジャニ∞ - OosakaおばちゃんRock (Type LAKJ2)
TTITLE3=04 関ジャニ∞ - 二人の涙雨
TTITLE4=05 関ジャニ∞ - 強情にGo!
TTITLE5=06 関ジャニ∞ - Great Escape 大脱走
TTITLE6=07 関ジャニ∞ - さよならはいつも
TTITLE7=08 関ジャニ∞ - 地元の王様
TTITLE8=09 関ジャニ∞ - ズッコケ男道
TTITLE9=10 関ジャニ∞ - エネルギー
TTITLE10=11 関ジャニ∞ - 旅の涯には
TTITLE11=12 関ジャニ∞ - ありがとう。
TTITLE12=13 関ジャニ∞ - 関風ファイティング
EXTD=
EXTT0=
EXTT1=
EXTT2=
EXTT3=
EXTT4=
EXTT5=
EXTT6=
EXTT7=
EXTT8=
EXTT9=
EXTT10=
EXTT11=
EXTT12=
PLAYORDER=
